# xmcd CD database file
#
# Track frame offsets:
#	150
#	28450
#	46833
#	70303
#	96390
#	120700
#	154005
#	178358
#	202588
#	224040
#	246435
#	271170
#
# Disc length: 3938 seconds
#
# Revision: 0
# Processed by: cddbd v1.5.2PL0 Copyright (c) Steve Scherf et al.
# Submitted via: CDex 1.70beta2
#
DISCID=b70f600c
DTITLE=Various Artist - Jazz Lounge [CD1)
DYEAR=2005
DGENRE=Jazz
TTITLE0=Jazoulster - Nothing But A Paradaise
TTITLE1=Hiroshi Shinkawa - Altogether Alone
TTITLE2=Philippe Saisse Acoustique Trio - Summer Breeze
TTITLE3=Tohru Shigemi - Mistakes
TTITLE4=Osamu Koike - When I Fall In Love
TTITLE5=EQ - Wandering In Forest
TTITLE6=Shiro Sasaki - Morning
TTITLE7=Cesar Camargo Mariano - Sushi and White Wine
TTITLE8=Hiroshi Shinkawa - Under The Jamaican Moon
TTITLE9=Philippe Saisse Acoustique Trio - I'm Not In Love 
TTITLE10=Shiro Sasaki - Moonbeams
TTITLE11=Osamu Koike - A Little Giant
EXTD=YEAR: 2005
EXTT0=
EXTT1=
EXTT2=
EXTT3=
EXTT4=
EXTT5=
EXTT6=
EXTT7=
EXTT8=
EXTT9=
EXTT10=
EXTT11=
PLAYORDER=
